<?xml version="1.0" encoding="UTF-8" standalone="no" ?>
<!DOCTYPE svg PUBLIC "-//W3C//DTD SVG 1.1//EN" "http://www.w3.org/Graphics/SVG/1.1/DTD/svg11.dtd">
<svg xmlns="http://www.w3.org/2000/svg" xmlns:xlink="http://www.w3.org/1999/xlink" version="1.1" width="1080" height="1080" viewBox="0 0 1080 1080" xml:space="preserve">
<desc>Created with Fabric.js 5.2.4</desc>
<defs>
</defs>
<g transform="matrix(1 0 0 1 540 540)" id="1ae6c8f1-7d97-4369-ac2f-c3ab6c8acf32"  >
<rect style="stroke: none; stroke-width: 1; stroke-dasharray: none; stroke-linecap: butt; stroke-dashoffset: 0; stroke-linejoin: miter; stroke-miterlimit: 4; fill: rgb(255,255,255); fill-rule: nonzero; opacity: 1; visibility: hidden;" vector-effect="non-scaling-stroke"  x="-540" y="-540" rx="0" ry="0" width="1080" height="1080" />
</g>
<g transform="matrix(1 0 0 1 540 540)" id="4e3a0b05-3716-4fce-b30c-26af534cc7c0"  >
</g>
<g transform="matrix(14.26 0 0 14.26 540 540)"  >
<g style="" vector-effect="non-scaling-stroke"   >
		<g transform="matrix(1 0 0 1 -23.01 1.44)"  >
<path style="stroke: none; stroke-width: 1; stroke-dasharray: none; stroke-linecap: butt; stroke-dashoffset: 0; stroke-linejoin: miter; stroke-miterlimit: 4; fill: rgb(255,255,255); fill-rule: nonzero; opacity: 1;" vector-effect="non-scaling-stroke"  transform=" translate(-26.99, -51.44)" d="M 17.167 17.104 C 19.436 16.122999999999998 21.89 15.937 24.470000000000002 16.491 L 36.80500000000001 85.472 C 34.534000000000006 86.884 32.07900000000001 87.06599999999999 29.439000000000007 86.085 C 25.328 63.133 21.277 40.119 17.167 17.104 z" stroke-linecap="round" />
</g>
		<g transform="matrix(1 0 0 1 5 -15.8)"  >
<polygon style="stroke: none; stroke-width: 1; stroke-dasharray: none; stroke-linecap: butt; stroke-dashoffset: 0; stroke-linejoin: miter; stroke-miterlimit: 4; fill: rgb(255,255,255); fill-rule: nonzero; opacity: 1;" vector-effect="non-scaling-stroke"  points="-22.68,-18.26 -20.77,-19.18 -18.93,-19.85 -17.09,-20.34 -15.31,-20.65 -13.53,-20.84 -11.81,-20.9 -10.09,-20.77 -8.38,-20.53 -6.66,-20.22 -5,-19.79 -3.35,-19.3 -1.69,-18.75 -0.09,-18.2 1.56,-17.58 3.16,-16.91 4.76,-16.29 6.35,-15.74 7.95,-15.13 9.54,-14.64 11.14,-14.21 12.74,-13.9 14.33,-13.72 15.93,-13.65 17.58,-13.78 19.18,-14.08 20.84,-14.64 22.31,-15.31 27.83,19.98 27.83,19.98 26.54,20.47 25.26,20.77 24.03,20.9 22.8,20.9 21.57,20.83 20.28,20.59 19,20.28 17.71,19.85 16.36,19.36 15.01,18.81 13.6,18.2 12.18,17.52 10.71,16.85 9.18,16.17 7.64,15.5 6.05,14.88 4.39,14.27 2.73,13.78 0.95,13.35 -0.83,12.98 -2.73,12.8 -4.63,12.8 -6.6,12.92 -8.62,13.23 -10.71,13.78 -12.86,14.51 -15.07,15.44 -17.28,16.66 -19.55,18.13 -21.39,19.49 -27.83,-14.76 -26.67,-15.68 -24.64,-17.09 " />
</g>
</g>
</g>
</svg>