<svg version="1.1" id="Layer_1" xmlns="http://www.w3.org/2000/svg" xmlns:xlink="http://www.w3.org/1999/xlink" x="0px" y="0px"
	 width="100%" viewBox="0 0 512 512" enable-background="new 0 0 512 512" xml:space="preserve">
<path fill="#000000" opacity="1.000000" stroke="none" 
	d="
M0.999998,201.000000 
	C1.000000,134.365204 1.000000,67.730423 1.000000,1.047815 
	C171.553177,1.047815 342.106354,1.047815 513.000000,1.047815 
	C513.000000,67.354378 513.000000,133.709335 512.717285,200.869873 
	C511.777893,200.424026 510.966400,199.228836 510.488098,197.912567 
	C504.798065,182.253250 494.661469,170.743546 479.024048,164.544968 
	C463.621399,158.439484 447.024780,158.227997 430.589233,155.092133 
	C409.784332,151.733749 389.393585,148.450180 368.586975,145.092804 
	C363.908447,144.241333 359.645721,143.463669 355.529968,142.712830 
	C354.368744,140.756409 353.241760,138.857651 352.057953,136.591919 
	C336.289856,104.326614 320.641876,72.396835 304.822571,40.552158 
	C300.893158,32.642075 294.970276,26.145088 287.842957,21.035681 
	C275.467285,12.163859 261.423492,8.943982 246.636200,12.260401 
	C239.775467,13.799093 233.496552,17.932093 226.605347,20.940107 
	C213.939804,29.724600 207.511078,42.562073 201.569397,56.121590 
	C196.996582,65.199577 192.728195,74.109596 188.486374,83.032227 
	C186.612991,86.972893 184.793503,90.939178 182.629974,95.059677 
	C175.073288,109.860435 167.836151,124.495331 160.335648,139.434616 
	C159.072952,140.822723 158.208572,142.666458 157.053253,142.871582 
	C146.501633,144.744904 135.889694,146.274399 125.315392,148.025330 
	C118.177025,149.207306 111.070915,150.584122 103.518257,151.925583 
	C101.923477,151.987045 100.736404,151.846100 99.601990,152.029984 
	C89.499809,153.667572 79.397774,155.309769 69.314514,157.059052 
	C62.510231,158.239487 55.736294,159.594833 48.531731,160.924438 
	C39.281624,161.655060 31.158400,164.808945 24.499783,170.301804 
	C18.679506,175.103088 14.048287,181.345795 8.579666,187.120056 
	C6.482952,191.578186 4.739486,195.886246 2.855756,200.132034 
	C2.646763,200.603073 1.637900,200.719238 0.999998,201.000000 
z"/>
<path fill="#000000" opacity="1.000000" stroke="none" 
	d="
M513.000000,230.000000 
	C513.000000,324.295502 513.000000,418.591034 513.000000,512.943237 
	C342.439575,512.943237 171.879120,512.943237 1.000000,512.943237 
	C1.000000,418.977600 1.000000,324.954834 1.293994,230.141449 
	C2.051095,229.990341 2.730209,230.565033 2.944432,231.279190 
	C5.543120,239.942169 10.414922,247.194992 16.901989,253.342987 
	C25.889399,261.860626 35.130848,270.110413 44.107693,278.638947 
	C60.198147,293.925781 76.021019,309.498260 92.296028,324.584229 
	C96.660812,328.630127 97.989868,332.622406 96.094849,338.418335 
	C95.681503,340.758911 95.304276,342.671936 95.004822,344.597076 
	C93.703056,352.965820 92.287140,361.320007 91.174255,369.714142 
	C90.015465,378.454590 89.157112,387.234863 87.973434,396.364075 
	C87.526672,397.315643 87.118111,397.881897 87.044144,398.488922 
	C85.659279,409.854858 84.644547,421.276825 82.890884,432.584534 
	C79.392769,455.140594 84.965439,474.133850 102.730537,489.373444 
	C118.753784,503.118835 142.909698,507.382080 162.474823,496.851776 
	C168.935425,493.374573 175.398422,489.901825 182.150421,486.257568 
	C195.639526,479.099030 208.838531,472.109985 222.402237,465.060852 
	C233.230682,459.465485 243.645844,453.833923 254.212509,448.502563 
	C255.730972,447.736450 258.265503,447.804230 259.840118,448.537567 
	C266.001526,451.407013 271.966431,454.698425 278.327789,457.989258 
	C280.883057,459.452454 283.067169,460.850403 285.354248,462.052338 
	C307.956512,473.930969 330.442261,486.042725 353.249634,497.514618 
	C363.855743,502.849365 375.300690,504.889343 387.506836,501.025330 
	C394.753571,497.959534 402.088654,495.674805 408.322632,491.674255 
	C415.667023,486.961090 421.809723,480.553345 425.419250,471.879028 
	C432.534149,460.268036 432.794708,447.628632 431.823639,434.997009 
	C431.051270,424.949493 429.205414,414.984467 427.862976,404.721100 
	C427.607025,404.268585 427.324249,404.077759 427.037354,403.921387 
	C427.033203,403.955780 427.101135,403.942017 427.056091,403.511841 
	C425.994843,394.498840 425.119720,385.896301 423.921600,377.338959 
	C422.795807,369.298218 421.190186,361.324890 420.051239,353.285675 
	C418.909546,345.226898 418.083832,337.123383 417.423584,328.908203 
	C427.853638,318.868134 437.979767,308.959351 448.413422,298.917114 
	C449.776428,297.730408 450.809296,296.653259 451.890869,295.627441 
	C462.291107,285.763458 472.699554,275.908112 483.411743,265.919250 
	C487.078918,262.538910 490.180237,258.953522 493.856720,256.112427 
	C500.862823,250.698273 505.636261,243.731644 509.637451,235.575378 
	C510.941345,233.510132 511.970673,231.755066 513.000000,230.000000 
z"/>
<path fill="#F2692F" opacity="1.000000" stroke="none" 
	d="
M96.166756,337.996338 
	C97.989868,332.622406 96.660812,328.630127 92.296028,324.584229 
	C76.021019,309.498260 60.198147,293.925781 44.107693,278.638947 
	C35.130848,270.110413 25.889399,261.860626 16.901989,253.342987 
	C10.414922,247.194992 5.543120,239.942169 2.944432,231.279190 
	C2.730209,230.565033 2.051095,229.990341 1.293994,229.675415 
	C1.000000,220.645767 1.000000,211.291550 0.999998,201.468658 
	C1.637900,200.719238 2.646763,200.603073 2.855756,200.132034 
	C4.739486,195.886246 6.482952,191.578186 8.872488,187.292236 
	C18.004963,195.717346 26.504400,204.167511 35.088486,212.530762 
	C36.477371,213.883926 38.242264,214.851135 39.905060,216.383972 
	C41.159492,219.191559 41.795811,222.174072 43.613644,223.941010 
	C55.367901,235.366074 67.461403,246.441101 79.285515,257.795593 
	C92.348877,270.340118 105.241936,283.061981 118.212151,295.703552 
	C119.284004,296.748230 120.404472,297.743927 121.458397,298.805939 
	C126.081909,303.465057 131.503662,307.609314 135.015671,312.996521 
	C137.350647,316.578247 138.099854,322.085205 137.560272,326.485291 
	C135.815063,340.716736 133.146286,354.834869 130.483505,368.973328 
	C128.509140,367.886566 126.656578,367.055481 125.297455,365.721619 
	C117.112282,357.688568 109.070625,349.509399 100.900696,341.460571 
	C99.522621,340.102936 97.754608,339.141052 96.166756,337.996338 
z"/>
<path fill="#FCA54B" opacity="1.000000" stroke="none" 
	d="
M513.000000,229.531342 
	C511.970673,231.755066 510.941345,233.510132 509.462341,235.223053 
	C484.942261,210.904251 460.854858,186.644394 436.830536,162.322205 
	C434.678833,160.143845 432.936035,157.561600 431.003326,155.166931 
	C447.024780,158.227997 463.621399,158.439484 479.024048,164.544968 
	C494.661469,170.743546 504.798065,182.253250 510.488098,197.912567 
	C510.966400,199.228836 511.777893,200.424026 512.717285,201.337738 
	C513.000000,210.354233 513.000000,219.708450 513.000000,229.531342 
z"/>
<path fill="#FA9945" opacity="1.000000" stroke="none" 
	d="
M352.114746,136.958893 
	C353.241760,138.857651 354.368744,140.756409 355.529968,142.712830 
	C359.645721,143.463669 363.908447,144.241333 368.610535,145.442505 
	C370.233215,147.610596 371.180389,149.588654 372.637421,151.062729 
	C384.106415,162.665924 395.696838,174.149033 407.179779,185.738586 
	C408.660217,187.232803 409.739105,189.124924 410.577271,190.906586 
	C400.651001,189.611557 391.129181,188.379471 381.657166,186.840866 
	C368.352936,184.679718 355.146759,181.779160 341.780670,180.182587 
	C333.138611,179.150284 327.619690,175.022095 323.956207,167.646744 
	C309.290009,138.120697 294.640381,108.586395 280.018311,79.038475 
	C277.578125,74.107475 275.305176,69.093735 273.059326,63.808792 
	C276.378967,60.462738 277.557007,64.198677 278.935303,65.565765 
	C301.535645,87.982361 324.001282,110.534645 346.562347,132.991013 
	C348.153351,134.574646 350.252106,135.648163 352.114746,136.958893 
z"/>
<path fill="#FA9E47" opacity="1.000000" stroke="none" 
	d="
M352.057953,136.591919 
	C350.252106,135.648163 348.153351,134.574646 346.562347,132.991013 
	C324.001282,110.534645 301.535645,87.982361 278.935303,65.565765 
	C277.557007,64.198677 276.378967,60.462738 272.738770,63.644447 
	C269.408661,55.625713 264.429688,50.083538 254.867416,49.827095 
	C253.228882,47.951237 251.789658,46.340473 250.284134,44.794224 
	C242.516739,36.816711 234.732346,28.855745 226.953888,20.889000 
	C233.496552,17.932093 239.775467,13.799093 246.636200,12.260401 
	C261.423492,8.943982 275.467285,12.163859 287.842957,21.035681 
	C294.970276,26.145088 300.893158,32.642075 304.822571,40.552158 
	C320.641876,72.396835 336.289856,104.326614 352.057953,136.591919 
z"/>
<path fill="#FBA048" opacity="1.000000" stroke="none" 
	d="
M411.003998,190.832718 
	C409.739105,189.124924 408.660217,187.232803 407.179779,185.738586 
	C395.696838,174.149033 384.106415,162.665924 372.637421,151.062729 
	C371.180389,149.588654 370.233215,147.610596 369.026337,145.516327 
	C389.393585,148.450180 409.784332,151.733749 430.589233,155.092133 
	C432.936035,157.561600 434.678833,160.143845 436.830536,162.322205 
	C460.854858,186.644394 484.942261,210.904251 509.187744,235.533234 
	C505.636261,243.731644 500.862823,250.698273 493.856720,256.112427 
	C490.180237,258.953522 487.078918,262.538910 483.119446,265.746460 
	C474.825989,258.115112 467.097046,250.559357 459.467438,242.904587 
	C458.102600,241.535248 457.148743,239.756348 456.315186,238.023529 
	C461.445770,233.047134 466.417084,228.350693 471.001282,223.302689 
	C472.514008,221.636887 473.666992,219.126556 473.887238,216.894150 
	C474.857117,207.064209 468.833832,201.125748 459.985291,199.202362 
	C449.185181,196.854752 438.119507,195.745972 427.191193,193.963455 
	C421.769501,193.079117 416.398132,191.886093 411.003998,190.832718 
z"/>
<path fill="#F68039" opacity="1.000000" stroke="none" 
	d="
M103.950378,151.873795 
	C111.070915,150.584122 118.177025,149.207306 125.315392,148.025330 
	C135.889694,146.274399 146.501633,144.744904 157.053253,142.871582 
	C158.208572,142.666458 159.072952,140.822723 160.511780,139.787506 
	C169.588379,148.671356 178.208160,157.523804 186.892670,166.312302 
	C187.657761,167.086548 188.846375,167.442307 189.815842,168.335236 
	C186.143082,172.108383 182.975845,177.603653 178.754059,178.591385 
	C164.707993,181.877640 150.283142,183.544907 135.922729,185.509674 
	C128.371674,177.434723 120.890739,169.693161 113.436104,161.926331 
	C110.245964,158.602585 107.110626,155.226242 103.950378,151.873795 
z"/>
<path fill="#F57836" opacity="1.000000" stroke="none" 
	d="
M103.518257,151.925583 
	C107.110626,155.226242 110.245964,158.602585 113.436104,161.926331 
	C120.890739,169.693161 128.371674,177.434723 135.509293,185.583618 
	C133.437988,186.321808 131.706238,186.704071 129.959534,186.997116 
	C120.523933,188.580215 111.093781,190.199265 101.643608,191.690872 
	C94.444199,192.827240 87.217751,193.792236 79.922607,194.510239 
	C78.715736,192.779144 77.706139,191.255814 76.444420,189.982224 
	C68.515388,181.978424 60.490524,174.069168 52.599590,166.028320 
	C51.143330,164.544403 50.153759,162.602463 48.948784,160.871933 
	C55.736294,159.594833 62.510231,158.239487 69.314514,157.059052 
	C79.397774,155.309769 89.499809,153.667572 99.601990,152.029984 
	C100.736404,151.846100 101.923477,151.987045 103.518257,151.925583 
z"/>
<path fill="#F37132" opacity="1.000000" stroke="none" 
	d="
M48.531731,160.924438 
	C50.153759,162.602463 51.143330,164.544403 52.599590,166.028320 
	C60.490524,174.069168 68.515388,181.978424 76.444420,189.982224 
	C77.706139,191.255814 78.715736,192.779144 79.509323,194.583710 
	C71.535599,196.320251 63.929020,197.924789 56.243961,198.928482 
	C47.880802,200.020752 39.732475,205.521454 39.833344,215.996735 
	C38.242264,214.851135 36.477371,213.883926 35.088486,212.530762 
	C26.504400,204.167511 18.004963,195.717346 9.184584,187.123871 
	C14.048287,181.345795 18.679506,175.103088 24.499783,170.301804 
	C31.158400,164.808945 39.281624,161.655060 48.531731,160.924438 
z"/>
<path fill="#F7883D" opacity="1.000000" stroke="none" 
	d="
M189.838272,167.992432 
	C188.846375,167.442307 187.657761,167.086548 186.892670,166.312302 
	C178.208160,157.523804 169.588379,148.671356 160.775162,139.483124 
	C167.836151,124.495331 175.073288,109.860435 182.801895,95.355743 
	C185.512985,98.141357 187.594589,100.928429 189.978287,103.427322 
	C196.936066,110.721367 204.014465,117.900337 211.022415,125.489563 
	C203.945602,139.900620 196.891937,153.946533 189.838272,167.992432 
z"/>
<path fill="#F89041" opacity="1.000000" stroke="none" 
	d="
M211.045563,125.124413 
	C204.014465,117.900337 196.936066,110.721367 189.978287,103.427322 
	C187.594589,100.928429 185.512985,98.141357 183.121445,95.189880 
	C184.793503,90.939178 186.612991,86.972893 188.486374,83.032227 
	C192.728195,74.109596 196.996582,65.199577 201.912109,56.196060 
	C212.060913,65.443451 221.551712,74.779213 231.017822,84.480270 
	C224.343933,98.271851 217.694748,111.698135 211.045563,125.124413 
z"/>
<path fill="#F99744" opacity="1.000000" stroke="none" 
	d="
M231.042511,84.114960 
	C221.551712,74.779213 212.060913,65.443451 202.227386,56.033222 
	C207.511078,42.562073 213.939804,29.724600 226.605347,20.940109 
	C234.732346,28.855745 242.516739,36.816711 250.284134,44.794224 
	C251.789658,46.340473 253.228882,47.951237 254.694855,50.147644 
	C249.659546,51.935322 246.046951,54.505322 243.735931,59.482925 
	C239.849533,67.853661 235.308289,75.920364 231.042511,84.114960 
z"/>
<path fill="#F05927" opacity="1.000000" stroke="none" 
	d="
M181.860336,486.427063 
	C175.398422,489.901825 168.935425,493.374573 162.474823,496.851776 
	C142.909698,507.382080 118.753784,503.118835 102.730537,489.373444 
	C84.965439,474.133850 79.392769,455.140594 82.890884,432.584534 
	C84.644547,421.276825 85.659279,409.854858 87.044144,398.488922 
	C87.118111,397.881897 87.526672,397.315643 88.296478,396.444183 
	C90.226303,397.289307 91.754631,398.304138 93.033165,399.571014 
	C101.185921,407.649414 109.228592,415.839935 117.451340,423.845764 
	C118.897247,425.253540 121.021469,425.964661 122.902802,427.415070 
	C122.316063,434.136383 121.127655,440.439087 121.116219,446.743988 
	C121.094681,458.624451 134.523392,466.678833 145.024109,461.492523 
	C147.629272,460.205872 150.313980,459.080292 153.131470,458.175049 
	C162.820648,467.788696 172.340485,477.107880 181.860336,486.427063 
z"/>
<path fill="#F37132" opacity="1.000000" stroke="none" 
	d="
M387.108002,501.047180 
	C375.300690,504.889343 363.855743,502.849365 353.249634,497.514618 
	C330.442261,486.042725 307.956512,473.930969 285.354248,462.052338 
	C283.067169,460.850403 280.883057,459.452454 278.302704,457.639648 
	C276.779999,455.399811 275.841125,453.433228 274.394135,451.968689 
	C263.237152,440.676575 251.956863,429.506317 240.787018,418.226837 
	C239.318848,416.744263 238.259460,414.856903 237.335968,413.001343 
	C240.402496,411.414886 243.232834,410.130280 245.867538,408.524628 
	C252.485703,404.491364 259.054413,403.733948 266.149628,407.540405 
	C280.807343,415.404114 295.615417,422.987000 310.329529,430.746307 
	C316.633301,434.070526 322.856903,437.546783 328.932983,441.185120 
	C329.721405,442.999481 330.431824,444.842651 331.705872,446.126465 
	C347.606293,462.148010 363.576691,478.100250 379.562073,494.037201 
	C381.991852,496.459656 384.588531,498.714691 387.108002,501.047180 
z"/>
<path fill="#F6813A" opacity="1.000000" stroke="none" 
	d="
M427.836151,404.982819 
	C429.205414,414.984467 431.051270,424.949493 431.823639,434.997009 
	C432.794708,447.628632 432.534149,460.268036 425.107788,471.728760 
	C422.778595,470.456421 420.911804,469.329010 419.398468,467.841919 
	C412.186188,460.754730 405.103790,453.535309 397.889709,446.449982 
	C396.512939,445.097778 394.751343,444.137390 393.098450,442.562317 
	C393.005463,440.802063 393.123352,439.455231 392.935303,438.152588 
	C390.986176,424.650970 388.954742,411.161255 387.013031,397.658630 
	C385.352539,386.111115 383.779266,374.551086 382.517212,363.021362 
	C384.606537,364.226135 386.578644,365.170776 388.048798,366.623413 
	C399.382965,377.822449 410.589966,389.150116 421.923340,400.349884 
	C423.395203,401.804382 425.363037,402.756958 427.101135,403.942017 
	C427.101135,403.942017 427.033203,403.955780 427.145935,404.121002 
	C427.416229,404.547394 427.608704,404.779602 427.836151,404.982819 
z"/>
<path fill="#F7883D" opacity="1.000000" stroke="none" 
	d="
M427.056091,403.511841 
	C425.363037,402.756958 423.395203,401.804382 421.923340,400.349884 
	C410.589966,389.150116 399.382965,377.822449 388.048798,366.623413 
	C386.578644,365.170776 384.606537,364.226135 382.447388,362.597992 
	C381.532043,358.785858 381.072876,355.416077 380.533661,352.059113 
	C379.040802,342.765625 377.109772,333.520508 376.118683,324.174927 
	C375.180847,315.331482 380.356903,309.146271 387.212708,304.028870 
	C389.113495,305.311981 390.807678,306.380646 392.204346,307.752289 
	C398.379272,313.816498 404.351959,320.092468 410.668121,326.002960 
	C412.319611,327.548370 414.942749,328.055511 417.119629,329.039459 
	C418.083832,337.123383 418.909546,345.226898 420.051239,353.285675 
	C421.190186,361.324890 422.795807,369.298218 423.921600,377.338959 
	C425.119720,385.896301 425.994843,394.498840 427.056091,403.511841 
z"/>
<path fill="#F57836" opacity="1.000000" stroke="none" 
	d="
M393.167297,442.996216 
	C394.751343,444.137390 396.512939,445.097778 397.889709,446.449982 
	C405.103790,453.535309 412.186188,460.754730 419.398468,467.841919 
	C420.911804,469.329010 422.778595,470.456421 424.793945,471.899872 
	C421.809723,480.553345 415.667023,486.961090 408.322632,491.674255 
	C402.088654,495.674805 394.753571,497.959534 387.506836,501.025330 
	C384.588531,498.714691 381.991852,496.459656 379.562073,494.037201 
	C363.576691,478.100250 347.606293,462.148010 331.705872,446.126465 
	C330.431824,444.842651 329.721405,442.999481 329.252686,441.332825 
	C342.878693,448.022369 355.952850,454.891937 369.167297,461.480255 
	C371.579895,462.683105 374.765778,463.688263 377.249725,463.160614 
	C388.047913,460.866821 392.525177,454.858643 393.167297,442.996216 
z"/>
<path fill="#F1612B" opacity="1.000000" stroke="none" 
	d="
M122.832443,426.997498 
	C121.021469,425.964661 118.897247,425.253540 117.451340,423.845764 
	C109.228592,415.839935 101.185921,407.649414 93.033165,399.571014 
	C91.754631,398.304138 90.226303,397.289307 88.490433,396.077850 
	C89.157112,387.234863 90.015465,378.454590 91.174255,369.714142 
	C92.287140,361.320007 93.703056,352.965820 95.004822,344.597076 
	C95.304276,342.671936 95.681503,340.758911 96.094849,338.418335 
	C97.754608,339.141052 99.522621,340.102936 100.900696,341.460571 
	C109.070625,349.509399 117.112282,357.688568 125.297455,365.721619 
	C126.656578,367.055481 128.509140,367.886566 130.553604,369.390137 
	C128.259842,388.886017 125.546143,407.941742 122.832443,426.997498 
z"/>
<path fill="#F2692F" opacity="1.000000" stroke="none" 
	d="
M237.010727,413.157043 
	C238.259460,414.856903 239.318848,416.744263 240.787018,418.226837 
	C251.956863,429.506317 263.237152,440.676575 274.394135,451.968689 
	C275.841125,453.433228 276.779999,455.399811 277.979309,457.483459 
	C271.966431,454.698425 266.001526,451.407013 259.840118,448.537567 
	C258.265503,447.804230 255.730972,447.736450 254.212509,448.502563 
	C243.645844,453.833923 233.230682,459.465485 222.375061,464.692841 
	C220.862320,462.630249 219.995972,460.629089 218.576614,459.163544 
	C212.387131,452.772369 205.995270,446.577576 199.775894,440.214691 
	C198.320450,438.725708 197.251755,436.858704 196.328033,435.009003 
	C210.104218,427.620636 223.557465,420.388824 237.010727,413.157043 
z"/>
<path fill="#F99844" opacity="1.000000" stroke="none" 
	d="
M456.005096,238.166565 
	C457.148743,239.756348 458.102600,241.535248 459.467438,242.904587 
	C467.097046,250.559357 474.825989,258.115112 482.813324,265.877502 
	C472.699554,275.908112 462.291107,285.763458 451.890869,295.627441 
	C450.809296,296.653259 449.776428,297.730408 448.121094,298.744263 
	C438.641663,289.790009 429.762115,280.875122 421.020599,271.651764 
	C432.221954,260.589386 443.281311,249.831375 454.363190,239.096649 
	C454.800507,238.673050 455.452942,238.471558 456.005096,238.166565 
z"/>
<path fill="#F1612B" opacity="1.000000" stroke="none" 
	d="
M196.005127,435.165588 
	C197.251755,436.858704 198.320450,438.725708 199.775894,440.214691 
	C205.995270,446.577576 212.387131,452.772369 218.576614,459.163544 
	C219.995972,460.629089 220.862320,462.630249 222.010361,464.752930 
	C208.838531,472.109985 195.639526,479.099030 182.150421,486.257568 
	C172.340485,477.107880 162.820648,467.788696 153.303268,457.868042 
	C167.538864,449.899597 181.772003,442.532593 196.005127,435.165588 
z"/>
<path fill="#F89041" opacity="1.000000" stroke="none" 
	d="
M420.882568,271.960236 
	C429.762115,280.875122 438.641663,289.790009 447.813538,298.877686 
	C437.979767,308.959351 427.853638,318.868134 417.423584,328.908203 
	C414.942749,328.055511 412.319611,327.548370 410.668121,326.002960 
	C404.351959,320.092468 398.379272,313.816498 392.204346,307.752289 
	C390.807678,306.380646 389.113495,305.311981 387.298279,303.789948 
	C387.317932,303.303314 387.595551,303.130554 388.085663,302.811096 
	C388.512665,302.397400 388.727173,302.130432 389.072510,301.551086 
	C392.484436,298.311066 395.816437,295.438202 399.036407,292.444824 
	C406.347748,285.648132 413.603943,278.792145 420.882568,271.960236 
z"/>
<path fill="#F7883D" opacity="1.000000" stroke="none" 
	d="
M427.862976,404.721100 
	C427.608704,404.779602 427.416229,404.547394 427.150085,404.086609 
	C427.324249,404.077759 427.607025,404.268585 427.862976,404.721100 
z"/>
<path fill="#000000" opacity="1.000000" stroke="none" 
	d="
M387.873138,302.957794 
	C387.595551,303.130554 387.317932,303.303314 386.954773,303.714966 
	C380.356903,309.146271 375.180847,315.331482 376.118683,324.174927 
	C377.109772,333.520508 379.040802,342.765625 380.533661,352.059113 
	C381.072876,355.416077 381.532043,358.785858 382.097595,362.573181 
	C383.779266,374.551086 385.352539,386.111115 387.013031,397.658630 
	C388.954742,411.161255 390.986176,424.650970 392.935303,438.152588 
	C393.123352,439.455231 393.005463,440.802063 393.098450,442.562317 
	C392.525177,454.858643 388.047913,460.866821 377.249725,463.160614 
	C374.765778,463.688263 371.579895,462.683105 369.167297,461.480255 
	C355.952850,454.891937 342.878693,448.022369 329.436646,441.101685 
	C322.856903,437.546783 316.633301,434.070526 310.329529,430.746307 
	C295.615417,422.987000 280.807343,415.404114 266.149628,407.540405 
	C259.054413,403.733948 252.485703,404.491364 245.867538,408.524628 
	C243.232834,410.130280 240.402496,411.414886 237.335968,413.001343 
	C223.557465,420.388824 210.104218,427.620636 196.328033,435.009003 
	C181.772003,442.532593 167.538864,449.899597 153.133911,457.573608 
	C150.313980,459.080292 147.629272,460.205872 145.024109,461.492523 
	C134.523392,466.678833 121.094681,458.624451 121.116219,446.743988 
	C121.127655,440.439087 122.316063,434.136383 122.902802,427.415100 
	C125.546143,407.941742 128.259842,388.886017 130.903442,369.413452 
	C133.146286,354.834869 135.815063,340.716736 137.560272,326.485291 
	C138.099854,322.085205 137.350647,316.578247 135.015671,312.996521 
	C131.503662,307.609314 126.081909,303.465057 121.458397,298.805939 
	C120.404472,297.743927 119.284004,296.748230 118.212151,295.703552 
	C105.241936,283.061981 92.348877,270.340118 79.285515,257.795593 
	C67.461403,246.441101 55.367901,235.366074 43.613644,223.941010 
	C41.795811,222.174072 41.159492,219.191559 39.905060,216.383972 
	C39.732475,205.521454 47.880802,200.020752 56.243961,198.928482 
	C63.929020,197.924789 71.535599,196.320251 79.590042,194.906921 
	C87.217751,193.792236 94.444199,192.827240 101.643608,191.690872 
	C111.093781,190.199265 120.523933,188.580215 129.959534,186.997116 
	C131.706238,186.704071 133.437988,186.321808 135.590073,185.906769 
	C150.283142,183.544907 164.707993,181.877640 178.754059,178.591385 
	C182.975845,177.603653 186.143082,172.108383 189.815842,168.335236 
	C196.891937,153.946533 203.945602,139.900620 211.022400,125.489563 
	C217.694748,111.698135 224.343933,98.271851 231.017822,84.480263 
	C235.308289,75.920364 239.849533,67.853661 243.735931,59.482925 
	C246.046951,54.505322 249.659546,51.935322 254.863571,50.442509 
	C264.429688,50.083538 269.408661,55.625713 272.634338,63.953888 
	C275.305176,69.093735 277.578125,74.107475 280.018311,79.038475 
	C294.640381,108.586395 309.290009,138.120697 323.956207,167.646744 
	C327.619690,175.022095 333.138611,179.150284 341.780670,180.182587 
	C355.146759,181.779160 368.352936,184.679718 381.657166,186.840866 
	C391.129181,188.379471 400.651001,189.611557 410.577271,190.906586 
	C416.398132,191.886093 421.769501,193.079117 427.191193,193.963455 
	C438.119507,195.745972 449.185181,196.854752 459.985291,199.202362 
	C468.833832,201.125748 474.857117,207.064209 473.887238,216.894150 
	C473.666992,219.126556 472.514008,221.636887 471.001282,223.302689 
	C466.417084,228.350693 461.445770,233.047134 456.315186,238.023544 
	C455.452942,238.471558 454.800507,238.673050 454.363190,239.096649 
	C443.281311,249.831375 432.221954,260.589386 421.020599,271.651764 
	C413.603943,278.792145 406.347748,285.648132 399.036407,292.444824 
	C395.816437,295.438202 392.484436,298.311066 388.824951,301.656006 
	C388.255463,302.368134 388.064301,302.662964 387.873138,302.957794 
z"/>
<path fill="#F7883D" opacity="1.000000" stroke="none" 
	d="
M388.085663,302.811096 
	C388.064301,302.662964 388.255463,302.368134 388.694153,301.968384 
	C388.727173,302.130432 388.512665,302.397400 388.085663,302.811096 
z"/>
</svg>