<svg version="1.1" id="Layer_1" xmlns="http://www.w3.org/2000/svg" xmlns:xlink="http://www.w3.org/1999/xlink" x="0px" y="0px"
	 width="100%" viewBox="0 0 512 512" enable-background="new 0 0 512 512" xml:space="preserve">
<path fill="#FFC107" opacity="1.000000" stroke="none" 
	d="
M1.000000,216.000000 
	C1.000000,209.312363 1.000000,202.624710 1.256563,195.801544 
	C2.018752,195.056473 2.650568,194.513168 3.010788,193.827255 
	C7.358977,185.547546 13.718622,179.992874 23.318684,178.942245 
	C30.149893,178.194641 37.002617,177.645920 43.839752,176.949646 
	C56.545013,175.655807 69.236336,174.216080 81.951828,173.034683 
	C91.118896,172.182983 100.324997,171.757187 109.497116,170.952499 
	C123.540794,169.720383 137.571777,168.341827 151.604965,166.992554 
	C158.118729,166.366272 164.635269,165.742325 171.124191,164.911514 
	C172.144806,164.780838 173.472595,163.754883 173.900650,162.802368 
	C177.997849,153.685547 181.978302,144.515244 185.903000,135.322189 
	C193.518005,117.485161 201.105652,99.636322 208.647903,81.768433 
	C215.805801,64.811081 222.863113,47.811275 230.019592,30.853312 
	C233.928619,21.590477 240.152115,13.764392 250.237640,12.276631 
	C264.960876,10.104745 276.396362,13.515819 283.405396,29.900070 
	C290.891174,47.398727 298.339935,64.913208 305.803497,82.421371 
	C317.207855,109.173965 328.595734,135.933624 340.075745,162.653717 
	C340.494873,163.629242 341.740326,164.763580 342.723816,164.893738 
	C346.945404,165.452408 351.213257,165.660599 355.463928,166.000549 
	C363.980164,166.681610 372.505402,167.267715 381.010162,168.070572 
	C394.051086,169.301666 407.070557,170.761566 420.113220,171.972534 
	C428.948517,172.792847 437.820221,173.223511 446.653717,174.059799 
	C459.361755,175.262848 472.026550,177.008926 484.753418,177.900925 
	C496.167633,178.700928 505.136688,182.893478 510.746033,193.232925 
	C511.163757,194.002930 512.233398,194.419250 513.000000,195.000000 
	C513.000000,201.687637 513.000000,208.375290 512.731140,215.196716 
	C509.618225,219.081482 507.161438,223.224716 503.845917,226.498154 
	C497.773346,232.493698 491.199249,237.981903 484.824097,243.670242 
	C475.633209,251.871048 466.474792,260.108826 457.227295,268.245361 
	C444.041016,279.847473 430.811798,291.401123 417.550568,302.917480 
	C411.011444,308.596191 404.235107,314.008148 397.830872,319.831970 
	C395.792175,321.685883 393.177704,324.567688 393.318787,326.823273 
	C393.646118,332.056396 395.515381,337.189270 396.720032,342.371979 
	C400.819733,360.010193 405.007263,377.628906 408.966187,395.298798 
	C414.522186,420.097076 419.857666,444.944702 425.380798,469.750458 
	C427.745483,480.371002 424.384216,489.487427 416.793213,496.370789 
	C408.092072,504.260773 393.257812,505.158081 384.293457,499.759369 
	C374.311218,493.747742 364.314301,487.760437 354.333313,481.746735 
	C323.018188,462.879059 291.740387,443.948639 260.307892,425.278564 
	C258.549255,424.233948 255.014481,424.446625 253.175018,425.538055 
	C234.105667,436.852875 215.297791,448.607666 196.252853,459.964478 
	C173.997726,473.235565 151.652451,486.359802 129.199295,499.292511 
	C118.593849,505.401123 108.618301,504.558044 97.332550,496.706085 
	C90.836258,492.186371 86.264374,478.008545 88.209358,469.485504 
	C92.205177,451.975525 95.986053,434.416168 100.038727,416.919556 
	C106.571182,388.716980 113.267502,360.552399 119.854553,332.362366 
	C120.951317,327.668640 121.515320,323.367340 116.537529,319.847260 
	C111.215599,316.083832 106.520889,311.425232 101.606094,307.096375 
	C95.443924,301.668915 89.378044,296.131805 83.196587,290.726685 
	C70.459160,279.588959 57.698055,268.477966 44.895729,257.414948 
	C38.341305,251.751007 31.163528,246.707993 25.190430,240.496780 
	C17.478989,232.477921 6.794984,227.157730 2.388410,216.047058 
	C2.320128,215.874908 1.479949,216.008896 1.000000,216.000000 
z"/>
<path fill="#000000" opacity="1.000000" stroke="none" 
	d="
M513.000000,194.531342 
	C512.233398,194.419250 511.163757,194.002930 510.746033,193.232925 
	C505.136688,182.893478 496.167633,178.700928 484.753418,177.900925 
	C472.026550,177.008926 459.361755,175.262848 446.653717,174.059799 
	C437.820221,173.223511 428.948517,172.792847 420.113220,171.972534 
	C407.070557,170.761566 394.051086,169.301666 381.010162,168.070572 
	C372.505402,167.267715 363.980164,166.681610 355.463928,166.000549 
	C351.213257,165.660599 346.945404,165.452408 342.723816,164.893738 
	C341.740326,164.763580 340.494873,163.629242 340.075745,162.653717 
	C328.595734,135.933624 317.207855,109.173965 305.803497,82.421371 
	C298.339935,64.913208 290.891174,47.398727 283.405396,29.900070 
	C276.396362,13.515819 264.960876,10.104745 250.237640,12.276631 
	C240.152115,13.764392 233.928619,21.590477 230.019592,30.853312 
	C222.863113,47.811275 215.805801,64.811081 208.647903,81.768433 
	C201.105652,99.636322 193.518005,117.485161 185.903000,135.322189 
	C181.978302,144.515244 177.997849,153.685547 173.900650,162.802368 
	C173.472595,163.754883 172.144806,164.780838 171.124191,164.911514 
	C164.635269,165.742325 158.118729,166.366272 151.604965,166.992554 
	C137.571777,168.341827 123.540794,169.720383 109.497116,170.952499 
	C100.324997,171.757187 91.118896,172.182983 81.951828,173.034683 
	C69.236336,174.216080 56.545013,175.655807 43.839752,176.949646 
	C37.002617,177.645920 30.149893,178.194641 23.318684,178.942245 
	C13.718622,179.992874 7.358977,185.547546 3.010788,193.827255 
	C2.650568,194.513168 2.018752,195.056473 1.256563,195.333008 
	C1.000000,130.364761 1.000000,65.729515 1.000000,1.047138 
	C171.552292,1.047138 342.104614,1.047138 513.000000,1.047138 
	C513.000000,65.353821 513.000000,129.708252 513.000000,194.531342 
z"/>
<path fill="#000000" opacity="1.000000" stroke="none" 
	d="
M1.000000,216.468658 
	C1.479949,216.008896 2.320128,215.874908 2.388410,216.047058 
	C6.794984,227.157730 17.478989,232.477921 25.190430,240.496780 
	C31.163528,246.707993 38.341305,251.751007 44.895729,257.414948 
	C57.698055,268.477966 70.459160,279.588959 83.196587,290.726685 
	C89.378044,296.131805 95.443924,301.668915 101.606094,307.096375 
	C106.520889,311.425232 111.215599,316.083832 116.537529,319.847260 
	C121.515320,323.367340 120.951317,327.668640 119.854553,332.362366 
	C113.267502,360.552399 106.571182,388.716980 100.038727,416.919556 
	C95.986053,434.416168 92.205177,451.975525 88.209358,469.485504 
	C86.264374,478.008545 90.836258,492.186371 97.332550,496.706085 
	C108.618301,504.558044 118.593849,505.401123 129.199295,499.292511 
	C151.652451,486.359802 173.997726,473.235565 196.252853,459.964478 
	C215.297791,448.607666 234.105667,436.852875 253.175018,425.538055 
	C255.014481,424.446625 258.549255,424.233948 260.307892,425.278564 
	C291.740387,443.948639 323.018188,462.879059 354.333313,481.746735 
	C364.314301,487.760437 374.311218,493.747742 384.293457,499.759369 
	C393.257812,505.158081 408.092072,504.260773 416.793213,496.370789 
	C424.384216,489.487427 427.745483,480.371002 425.380798,469.750458 
	C419.857666,444.944702 414.522186,420.097076 408.966187,395.298798 
	C405.007263,377.628906 400.819733,360.010193 396.720032,342.371979 
	C395.515381,337.189270 393.646118,332.056396 393.318787,326.823273 
	C393.177704,324.567688 395.792175,321.685883 397.830872,319.831970 
	C404.235107,314.008148 411.011444,308.596191 417.550568,302.917480 
	C430.811798,291.401123 444.041016,279.847473 457.227295,268.245361 
	C466.474792,260.108826 475.633209,251.871048 484.824097,243.670242 
	C491.199249,237.981903 497.773346,232.493698 503.845917,226.498154 
	C507.161438,223.224716 509.618225,219.081482 512.731140,215.665253 
	C513.000000,314.960815 513.000000,413.921631 513.000000,512.941223 
	C342.440063,512.941223 171.880127,512.941223 1.000000,512.941223 
	C1.000000,414.312683 1.000000,315.625000 1.000000,216.468658 
z"/>
</svg>